PathFileType	4	(X/Y/Z)	c:/Users/goper/Files/vsCode/490R/osim_files/C11/C11_SSWS_03.trc
DataRate	CameraRate	NumFrames	NumMarkers	Units                	OrigDataRate	OrigDataStartFrame	OrigNumFrames
120.00	120.00	9	36	mm	120.0	868	991
                Frame#	Time	LPSI			LASI			LTH1			LTH2			LTH3			LTH4			LLFE			LMFE			LSH1			LSH2			LSH3			LSH4			LLMA			LMMA			LCAL			LMTP			LTOE			LMTP			RPSI			RASI			RTH1			RTH2			RTH3			RTH4			RLFE			RMFE			RSH1			RSH2			RSH3			RSH4			RLMA			RMMA			RCAL			RMTP			RTOE			RMTP		
		X1	Y1	Z1	X2	Y2	Z2	X3	Y3	Z3	X4	Y4	Z4	X5	Y5	Z5	X6	Y6	Z6	X7	Y7	Z7	X8	Y8	Z8	X9	Y9	Z9	X10	Y10	Z10	X11	Y11	Z11	X12	Y12	Z12	X13	Y13	Z13	X14	Y14	Z14	X15	Y15	Z15	X16	Y16	Z16	X17	Y17	Z17	X18	Y18	Z18	X19	Y19	Z19	X20	Y20	Z20	X21	Y21	Z21	X22	Y22	Z22	X23	Y23	Z23	X24	Y24	Z24	X25	Y25	Z25	X26	Y26	Z26	X27	Y27	Z27	X28	Y28	Z28	X29	Y29	Z29	X30	Y30	Z30	X31	Y31	Z31	X32	Y32	Z32	X33	Y33	Z33	X34	Y34	Z34	X35	Y35	Z35	X36	Y36	Z36

868	7.22500	-2632.21240	985.65045	345.25092	-2818.35474	987.31512	393.35962	-2832.73413	593.64313	444.25525	-2855.27832	551.29510	442.82898	-2888.93433	615.05548	457.69449	-2901.58960	570.48883	450.34027	-2903.27783	500.71570	443.41571	-2919.07349	507.99875	331.06131	-2900.82324	385.42297	449.39279	-2919.34888	345.25070	445.18646	-2956.37109	407.84308	460.56503	-2968.67700	365.03458	456.37521	-3074.58936	116.13902	386.31943	-3099.70996	156.89330	301.14813	-3049.94897	64.51550	321.70950	-3197.93604	116.50816	425.04831	-3254.13477	184.13287	374.01050	-3233.78198	155.71025	322.60681	-2630.04297	1002.77161	261.04333	-2784.34229	979.71045	163.22107	-2644.65601	632.33972	140.17645	-2643.17139	589.08185	147.66103	-2706.41064	621.22791	148.96397	-2694.87573	581.47803	153.59821	-2642.09375	502.46313	167.43861	-2625.66528	492.88882	280.80200	-2549.16992	408.93311	161.74319	-2542.32935	364.04425	166.68243	-2611.58252	392.90762	164.59856	-2595.43848	348.37878	167.81418	-2497.81177	103.52148	233.89412	-2533.98535	111.76843	325.67084	-2438.01050	69.66228	291.12811	-2657.07812	55.06944	293.80304	-2655.81177	65.61855	242.29027	-2607.35791	45.71801	184.02805
869	7.23333	-2643.69751	983.12799	344.97855	-2828.95361	984.68909	392.77319	-2841.15210	591.01642	443.25018	-2861.53296	549.08301	441.16998	-2896.89233	611.94049	457.28708	-2909.75269	567.57690	449.85883	-2910.84839	497.55878	442.49582	-2921.94287	502.98398	332.12732	-2910.65112	382.34424	446.96832	-2929.55322	342.35352	442.12396	-2965.01074	405.58154	459.65378	-2977.33521	363.01456	455.03171	-3095.38892	114.73056	384.13806	-3116.48608	160.69502	299.68738	-3069.71997	65.80753	316.78024	-3217.23022	119.16377	421.49292	-3269.58057	191.20699	372.62442	-3250.14893	164.35458	320.25189	-2642.08960	1000.12073	260.89276	-2794.95850	977.48035	162.58334	-2652.25391	631.04016	139.67206	-2651.16650	587.64587	146.94521	-2714.10156	619.42340	148.07037	-2702.54395	579.95752	152.69910	-2648.44800	501.23105	167.04179	-2631.91504	491.74966	280.45319	-2554.27979	408.82440	161.41151	-2546.85132	364.15295	166.22815	-2616.64282	392.00418	164.38228	-2599.80298	347.70621	167.64188	-2498.06226	103.98431	233.49217	-2534.48608	111.97488	325.58060	-2438.45679	70.37920	291.11655	-2656.34009	54.34446	293.28629	-2656.05200	65.31145	242.15260	-2606.62061	45.09971	183.80917
870	7.24167	-2653.92065	980.92828	344.63193	-2839.36841	982.21112	392.66077	-2850.30835	588.47559	441.37915	-2870.83984	546.64075	439.09879	-2905.99219	609.51135	456.49515	-2919.29492	565.20526	448.96146	-2919.59692	494.94766	440.95520	-2933.68726	502.60812	331.32416	-2920.82324	379.98999	443.68857	-2940.12354	339.95377	438.53864	-2973.94434	403.49969	457.43634	-2986.68994	360.99298	452.70801	-3110.94336	112.53650	381.57135	-3130.79956	162.91815	298.67407	-3087.38379	65.67783	312.76627	-3234.40625	119.78201	418.14890	-3283.06006	196.36449	371.89471	-3263.70972	170.94904	318.63132	-2652.69995	998.00940	260.46283	-2805.69995	975.14923	162.19835	-2660.85205	629.67017	138.88503	-2657.94922	586.60919	146.86017	-2722.17969	617.60748	147.31218	-2710.09644	578.23431	152.12080	-2655.41772	499.93719	166.75197	-2638.68457	491.02802	280.18839	-2559.75171	408.90768	161.06644	-2551.80396	364.24631	165.95891	-2621.90039	391.14474	164.24768	-2604.46973	347.07132	167.50264	-2498.93091	104.65866	233.60396	-2534.29248	111.99140	324.31339	-2438.80347	71.39166	290.82947	-2656.50269	54.17085	293.19009	-2656.49121	64.98436	241.93542	-2606.72827	45.00674	183.77309
871	7.25000	-2662.24609	979.01416	344.26810	-2849.51489	979.92773	392.75882	-2860.92920	586.36914	439.19629	-2881.59351	544.74603	436.45044	-2916.20215	607.54340	455.42432	-2929.34106	563.30701	447.36993	-2929.98901	493.36511	439.06198	-2954.00000	506.00677	329.29263	-2933.02637	378.66092	441.53925	-2950.26025	338.73297	434.10706	-2984.10913	401.47714	454.91098	-2997.89404	359.14264	450.10413	-3124.59497	109.46537	379.34006	-3143.07397	163.13727	297.27014	-3102.03979	64.46370	309.13019	-3248.67627	118.76301	415.12961	-3294.24780	198.88930	371.13501	-3274.77466	174.89793	317.25003	-2662.07056	996.37695	259.62982	-2816.65771	972.81073	161.95900	-2669.29419	628.47491	138.48805	-2665.82983	585.39319	146.55528	-2730.71338	615.79413	146.75072	-2718.17456	576.56238	151.67230	-2662.75439	498.64151	166.56912	-2646.12402	490.11697	280.04391	-2565.56372	409.06888	160.63156	-2556.89868	364.54080	165.54034	-2627.79834	390.33774	164.24307	-2609.56250	346.54712	167.45218	-2499.70947	105.62386	233.37939	-2534.99609	112.65191	323.96683	-2439.24292	72.87022	290.43430	-2656.76074	54.09467	293.02246	-2656.71729	64.52380	241.78053	-2606.86597	44.94710	183.76414
872	7.25833	-2674.55298	976.53552	343.45227	-2859.46533	977.79144	393.11121	-2872.59717	584.86084	436.76138	-2893.64404	543.46356	433.75711	-2927.33984	606.33624	454.20844	-2941.52686	562.61060	445.90231	-2943.64673	492.58704	437.41589	-2969.13745	506.56418	328.80392	-2945.22974	377.39432	438.15775	-2960.48560	337.95355	429.80664	-2995.39136	399.70547	451.66022	-3009.44336	357.84628	447.70218	-3135.54248	106.52085	376.61758	-3153.56860	161.70473	294.95844	-3113.80518	62.28727	305.73285	-3259.59717	117.03437	412.55411	-3303.68066	198.39053	369.92560	-3284.62964	175.17613	315.53088	-2673.61621	994.29633	259.09213	-2827.69263	970.61267	161.84387	-2678.21191	627.29291	138.27798	-2674.23535	584.37488	146.30605	-2739.59424	614.08545	146.38351	-2726.71924	574.98065	151.45914	-2670.59546	497.41260	166.49699	-2653.85938	489.30399	279.85992	-2572.93384	409.14285	160.33736	-2563.67285	364.73822	165.32509	-2630.69434	388.11642	164.87697	-2615.06787	346.17154	167.36868	-2500.63574	106.86565	233.17867	-2535.72778	115.16663	321.99460	-2439.62817	74.86315	290.07776	-2657.93213	54.36323	293.56946	-2657.21826	64.28040	241.66840	-2606.98975	44.94260	183.77646
873	7.26667	-2684.84766	974.64948	342.65717	-2869.62280	975.67743	393.50790	-2885.19897	583.82550	434.47717	-2906.45190	542.45758	431.19296	-2939.12061	605.34180	452.97705	-2953.57300	561.67859	444.35776	-2956.79980	492.03659	435.30032	-2984.84473	507.14313	328.23761	-2957.68359	376.45474	435.53137	-2972.01855	337.41638	427.00403	-3008.76343	398.18762	450.99503	-3021.90942	355.81158	445.59814	-3144.02173	104.00922	373.40866	-3162.91626	158.82404	291.79517	-3123.08325	59.52847	302.51556	-3267.65234	114.19363	410.31793	-3312.76074	195.33549	367.67636	-3294.30737	172.10349	313.20914	-2683.43115	992.65436	258.03812	-2838.83447	968.43182	161.74721	-2687.45361	626.07574	138.14441	-2682.87842	583.32092	146.29175	-2752.56470	614.18146	146.51364	-2735.58789	573.45020	151.33012	-2678.91968	496.16193	166.38365	-2661.94971	488.52701	279.56161	-2579.73218	409.48941	160.02422	-2570.15210	365.18710	165.26183	-2636.98828	387.16953	164.86238	-2620.93164	345.82425	167.26619	-2501.62207	108.39478	232.81940	-2536.80225	116.46361	321.62799	-2440.21924	77.19327	289.78122	-2657.13281	54.00181	291.87289	-2657.78687	64.04641	241.57072	-2607.16064	44.99395	183.78847
874	7.27500	-2697.20508	972.27185	341.99429	-2880.06934	973.66534	393.86661	-2897.89502	582.48700	432.37271	-2919.89941	541.66156	428.96677	-2951.67627	604.70471	451.72467	-2966.66797	561.20612	442.86252	-2971.85303	491.91309	433.38422	-3000.51123	507.83475	327.41168	-2970.29224	375.73874	433.44016	-2985.04321	335.62946	424.16684	-3022.30225	396.87326	448.98361	-3034.61450	354.25067	443.29260	-3150.63330	101.49924	369.68765	-3171.18091	154.56848	288.12241	-3129.02881	56.22075	299.30579	-3273.45166	109.98050	408.16669	-3320.93530	189.17508	365.00345	-3302.95679	165.58319	310.49814	-2695.09424	990.68842	257.17148	-2850.12720	966.38629	161.64656	-2696.98877	624.78967	138.22060	-2693.49927	581.85095	145.86205	-2762.16968	612.56213	146.54213	-2744.87598	571.86029	151.25021	-2687.64893	494.88361	166.32788	-2670.92773	487.34564	279.49356	-2587.21069	409.81244	159.77101	-2576.76562	365.70770	164.99330	-2643.93188	386.38583	164.83627	-2627.05713	345.42175	167.17157	-2502.88184	110.13064	232.41162	-2538.06299	117.79298	321.22104	-2440.98364	79.76231	289.32797	-2657.45166	53.87638	291.75217	-2658.78735	64.15620	241.52132	-2607.37598	44.99724	183.74982
875	7.28333	-2706.55884	970.68311	340.71188	-2890.68457	971.65125	394.01828	-2911.36841	581.46576	430.62567	-2934.98779	540.83673	427.21408	-2964.85596	604.25763	450.40482	-2980.26123	560.90106	441.21918	-2984.22852	491.92889	430.72430	-3015.93066	508.96201	326.32816	-2982.43237	377.21326	427.21817	-2997.46045	335.32120	422.80292	-3036.16406	396.01630	446.51846	-3047.61011	353.11832	440.77075	-3155.79492	98.66918	366.30685	-3178.20435	149.56111	284.44843	-3133.31519	52.67637	296.59979	-3277.91406	104.31141	405.84497	-3328.76416	180.85281	361.80157	-3310.58813	156.65312	307.54398	-2705.54126	988.90863	256.22266	-2861.55493	964.30963	161.53394	-2708.55786	623.06421	138.25294	-2703.61792	580.31317	145.98099	-2766.55933	608.60565	147.42197	-2756.85889	570.49451	151.68396	-2696.82861	493.38321	166.26463	-2680.04272	486.01547	279.35413	-2595.21313	410.05969	159.58304	-2583.85645	366.20288	164.79222	-2651.27979	385.56537	164.85985	-2633.61304	345.06119	167.05490	-2504.15723	112.06668	231.91742	-2539.52759	119.28821	320.75073	-2441.54443	82.74580	288.74518	-2658.16089	53.71972	291.90707	-2658.83423	63.48058	241.05209	-2607.57690	44.95499	183.68094
876	7.29167	-2718.04614	968.87384	339.84213	-2901.82715	969.77771	394.16623	-2925.32520	580.81439	428.90030	-2948.25366	540.55273	425.02286	-2978.74658	603.98853	448.91965	-2994.45117	560.77686	439.40976	-2999.16431	491.81464	428.35541	-3030.79810	510.33200	324.86893	-2995.35791	377.24500	426.12033	-3009.78516	335.20624	421.48425	-3050.18701	395.41501	443.77560	-3060.79175	352.25946	438.11551	-3159.10425	97.67605	363.54385	-3184.25610	145.67114	280.92450	-3135.22217	51.35939	294.40866	-3281.54736	97.49088	403.36633	-3335.71753	171.01416	358.21750	-3317.08057	146.26088	304.35239	-2716.94214	987.02423	255.45975	-2873.04736	962.33850	161.35069	-2718.21387	621.78607	138.54524	-2713.34009	578.79462	146.03436	-2776.63428	606.93262	147.36760	-2767.00732	568.84753	151.61549	-2706.53906	491.82254	166.23154	-2689.90015	484.43869	279.27365	-2603.52637	410.33133	159.38977	-2590.97241	366.81937	164.33029	-2659.03003	384.72128	164.87054	-2640.58765	344.67395	166.94830	-2505.62036	114.20432	231.40840	-2541.15698	120.98024	320.29895	-2442.93628	85.80753	288.47845	-2658.09814	53.53511	291.43277	-2659.41016	63.11899	240.76952	-2607.80054	44.91700	183.57274
